<svg xmlns="http://www.w3.org/2000/svg" width="2560" height="1600"><path d="M1713,791L1851,1294L2067,847Z" fill="#81b0d8" stroke="#81b0d8" stroke-width="1.51"/><path d="M1851,1294L2039,1410L2067,847Z" fill="#739fcf" stroke="#739fcf" stroke-width="1.51"/><path d="M2039,1410L2510,996L2067,847Z" fill="#6f9bcd" stroke="#6f9bcd" stroke-width="1.51"/><path d="M2039,1410L2681,1222L2510,996Z" fill="#669acd" stroke="#669acd" stroke-width="1.51"/><path d="M1749,1681L2077,1646L2039,1410Z" fill="#618cc5" stroke="#618cc5" stroke-width="1.51"/><path d="M1067,1233L1749,1681L1851,1294Z" fill="#78a6d3" stroke="#78a6d3" stroke-width="1.51"/><path d="M1851,1294L1749,1681L2039,1410Z" fill="#6993c9" stroke="#6993c9" stroke-width="1.51"/><path d="M1713,791L1067,1233L1851,1294Z" fill="#87b8dc" stroke="#87b8dc" stroke-width="1.51"/><path d="M1647,214L1453,449L1713,791Z" fill="#93d0e4" stroke="#93d0e4" stroke-width="1.51"/><path d="M1647,214L1713,791L2067,847Z" fill="#8cc3df" stroke="#8cc3df" stroke-width="1.51"/><path d="M1453,449L1137,768L1713,791Z" fill="#9ad3e8" stroke="#9ad3e8" stroke-width="1.51"/><path d="M2510,996L2347,405L2067,847Z" fill="#7badd6" stroke="#7badd6" stroke-width="1.51"/><path d="M1137,768L1067,1233L1713,791Z" fill="#98cee7" stroke="#98cee7" stroke-width="1.51"/><path d="M1453,449L1003,490L1137,768Z" fill="#9fdeeb" stroke="#9fdeeb" stroke-width="1.51"/><path d="M2347,405L1647,214L2067,847Z" fill="#84bcda" stroke="#84bcda" stroke-width="1.51"/><path d="M2510,996L2468,399L2347,405Z" fill="#7bb9da" stroke="#7bb9da" stroke-width="1.51"/><path d="M2704,1687L2681,1222L2039,1410Z" fill="#5a91c7" stroke="#5a91c7" stroke-width="1.51"/><path d="M2347,405L2247,2L1647,214Z" fill="#82c0d9" stroke="#82c0d9" stroke-width="1.51"/><path d="M2886,428L2468,399L2510,996Z" fill="#7ac4e0" stroke="#7ac4e0" stroke-width="1.51"/><path d="M2077,1646L2704,1687L2039,1410Z" fill="#547fbe" stroke="#547fbe" stroke-width="1.51"/><path d="M1749,1681L1776,1951L2077,1646Z" fill="#639ecf" stroke="#639ecf" stroke-width="1.51"/><path d="M1311,1915L1776,1951L1749,1681Z" fill="#6dafd8" stroke="#6dafd8" stroke-width="1.51"/><path d="M1137,768L852,953L1067,1233Z" fill="#97d1e6" stroke="#97d1e6" stroke-width="1.51"/><path d="M1166,84L1003,490L1453,449Z" fill="#9fe4ec" stroke="#9fe4ec" stroke-width="1.51"/><path d="M1003,490L852,953L1137,768Z" fill="#9fdeeb" stroke="#9fdeeb" stroke-width="1.51"/><path d="M1123,1777L1311,1915L1749,1681Z" fill="#76b5db" stroke="#76b5db" stroke-width="1.51"/><path d="M1123,1777L1749,1681L1067,1233Z" fill="#7aa7d3" stroke="#7aa7d3" stroke-width="1.51"/><path d="M898,1616L1123,1777L1067,1233Z" fill="#7cafd5" stroke="#7cafd5" stroke-width="1.51"/><path d="M1776,1951L2335,1964L2077,1646Z" fill="#5b9cce" stroke="#5b9cce" stroke-width="1.51"/><path d="M2335,1964L2704,1687L2077,1646Z" fill="#5293c9" stroke="#5293c9" stroke-width="1.51"/><path d="M2468,399L2247,2L2347,405Z" fill="#7bbcd8" stroke="#7bbcd8" stroke-width="1.51"/><path d="M721,1364L898,1616L1067,1233Z" fill="#83bada" stroke="#83bada" stroke-width="1.51"/><path d="M1123,1777L775,1954L1311,1915Z" fill="#7ac6e2" stroke="#7ac6e2" stroke-width="1.51"/><path d="M2247,2L1886,-134L1647,214Z" fill="#87ccdd" stroke="#87ccdd" stroke-width="1.51"/><path d="M1647,214L1166,84L1453,449Z" fill="#9adee8" stroke="#9adee8" stroke-width="1.51"/><path d="M1345,-415L1166,84L1647,214Z" fill="#98e1ea" stroke="#98e1ea" stroke-width="1.51"/><path d="M2468,399L2670,104L2247,2Z" fill="#7bc5db" stroke="#7bc5db" stroke-width="1.51"/><path d="M3140,884L2886,428L2510,996Z" fill="#79cde8" stroke="#79cde8" stroke-width="1.51"/><path d="M3140,884L2510,996L2681,1222Z" fill="#6ebade" stroke="#6ebade" stroke-width="1.51"/><path d="M852,953L721,1364L1067,1233Z" fill="#8dc8e0" stroke="#8dc8e0" stroke-width="1.51"/><path d="M2886,428L2670,104L2468,399Z" fill="#79cfe2" stroke="#79cfe2" stroke-width="1.51"/><path d="M2174,-702L1530,-483L1886,-134Z" fill="#75b5e4" stroke="#75b5e4" stroke-width="1.51"/><path d="M2704,1687L3090,1138L2681,1222Z" fill="#5dabd6" stroke="#5dabd6" stroke-width="1.51"/><path d="M3090,1138L3140,884L2681,1222Z" fill="#69c3e3" stroke="#69c3e3" stroke-width="1.51"/><path d="M852,953L473,859L721,1364Z" fill="#93d3e4" stroke="#93d3e4" stroke-width="1.51"/><path d="M1003,490L473,859L852,953Z" fill="#9fe2ec" stroke="#9fe2ec" stroke-width="1.51"/><path d="M212,330L473,859L1003,490Z" fill="#9fecec" stroke="#9fecec" stroke-width="1.51"/><path d="M2089,2478L2412,2313L2335,1964Z" fill="#4bb2db" stroke="#4bb2db" stroke-width="1.51"/><path d="M2335,1964L2591,2351L2704,1687Z" fill="#4daed9" stroke="#4daed9" stroke-width="1.51"/><path d="M2704,1687L3164,1721L3090,1138Z" fill="#51aad6" stroke="#51aad6" stroke-width="1.51"/><path d="M2089,2478L2335,1964L1776,1951Z" fill="#57b1d9" stroke="#57b1d9" stroke-width="1.51"/><path d="M1311,1915L1396,2419L1776,1951Z" fill="#6fc9e5" stroke="#6fc9e5" stroke-width="1.51"/><path d="M898,1616L775,1954L1123,1777Z" fill="#7bc1de" stroke="#7bc1de" stroke-width="1.51"/><path d="M357,1617L775,1954L898,1616Z" fill="#7ac2dc" stroke="#7ac2dc" stroke-width="1.51"/><path d="M357,1617L898,1616L721,1364Z" fill="#7db7d6" stroke="#7db7d6" stroke-width="1.51"/><path d="M2886,428L2926,64L2670,104Z" fill="#78dbe8" stroke="#78dbe8" stroke-width="1.51"/><path d="M2670,104L2381,-534L2247,2Z" fill="#72bddd" stroke="#72bddd" stroke-width="1.51"/><path d="M3337,370L2926,64L2886,428Z" fill="#75e6ef" stroke="#75e6ef" stroke-width="1.51"/><path d="M926,2554L1396,2419L1311,1915Z" fill="#75e4f3" stroke="#75e4f3" stroke-width="1.51"/><path d="M1741,2683L2089,2478L1776,1951Z" fill="#5cc9e6" stroke="#5cc9e6" stroke-width="1.51"/><path d="M3140,884L3287,644L2886,428Z" fill="#75e0f0" stroke="#75e0f0" stroke-width="1.51"/><path d="M3592,1059L3287,644L3140,884Z" fill="#71e1f2" stroke="#71e1f2" stroke-width="1.51"/><path d="M2880,2307L3164,1721L2704,1687Z" fill="#47bee1" stroke="#47bee1" stroke-width="1.51"/><path d="M3090,1138L3592,1059L3140,884Z" fill="#69d7ed" stroke="#69d7ed" stroke-width="1.51"/><path d="M2089,2478L2591,2351L2412,2313Z" fill="#47bde1" stroke="#47bde1" stroke-width="1.51"/><path d="M2412,2313L2591,2351L2335,1964Z" fill="#49b9de" stroke="#49b9de" stroke-width="1.51"/><path d="M1166,84L566,4L1003,490Z" fill="#9feeec" stroke="#9feeec" stroke-width="1.51"/><path d="M1886,-134L1345,-415L1647,214Z" fill="#8dd2e6" stroke="#8dd2e6" stroke-width="1.51"/><path d="M1530,-483L1345,-415L1886,-134Z" fill="#84c7e9" stroke="#84c7e9" stroke-width="1.51"/><path d="M2381,-534L1886,-134L2247,2Z" fill="#73b3da" stroke="#73b3da" stroke-width="1.51"/><path d="M473,859L330,1388L721,1364Z" fill="#8dcee0" stroke="#8dcee0" stroke-width="1.51"/><path d="M330,1388L357,1617L721,1364Z" fill="#80bfd8" stroke="#80bfd8" stroke-width="1.51"/><path d="M3592,1059L3337,370L3287,644Z" fill="#74e8f4" stroke="#74e8f4" stroke-width="1.51"/><path d="M3287,644L3337,370L2886,428Z" fill="#74e9f3" stroke="#74e9f3" stroke-width="1.51"/><path d="M3221,-379L2381,-534L2926,64Z" fill="#68ceec" stroke="#68ceec" stroke-width="1.51"/><path d="M2926,64L2381,-534L2670,104Z" fill="#71cce4" stroke="#71cce4" stroke-width="1.51"/><path d="M2875,2363L2880,2307L2591,2351Z" fill="#37d6ef" stroke="#37d6ef" stroke-width="1.51"/><path d="M2591,2351L2880,2307L2704,1687Z" fill="#44c2e4" stroke="#44c2e4" stroke-width="1.51"/><path d="M473,859L112,940L330,1388Z" fill="#93dbe4" stroke="#93dbe4" stroke-width="1.51"/><path d="M630,-223L566,4L1166,84Z" fill="#9bf1ed" stroke="#9bf1ed" stroke-width="1.51"/><path d="M2089,2478L2875,2363L2591,2351Z" fill="#42c6e6" stroke="#42c6e6" stroke-width="1.51"/><path d="M1396,2419L1741,2683L1776,1951Z" fill="#66d4ec" stroke="#66d4ec" stroke-width="1.51"/><path d="M926,2554L1741,2683L1396,2419Z" fill="#71e1f3" stroke="#71e1f3" stroke-width="1.51"/><path d="M3593,2216L3643,1776L3164,1721Z" fill="#3bd1ec" stroke="#3bd1ec" stroke-width="1.51"/><path d="M1741,2683L2875,2363L2089,2478Z" fill="#4bb8de" stroke="#4bb8de" stroke-width="1.51"/><path d="M3643,1776L3592,1059L3164,1721Z" fill="#4db9df" stroke="#4db9df" stroke-width="1.51"/><path d="M3164,1721L3592,1059L3090,1138Z" fill="#59c6e5" stroke="#59c6e5" stroke-width="1.51"/><path d="M212,330L112,940L473,859Z" fill="#9eecec" stroke="#9eecec" stroke-width="1.51"/><path d="M330,1388L-166,1699L357,1617Z" fill="#77b7d7" stroke="#77b7d7" stroke-width="1.51"/><path d="M679,-330L630,-223L1166,84Z" fill="#97eaef" stroke="#97eaef" stroke-width="1.51"/><path d="M566,4L212,330L1003,490Z" fill="#9ef3ec" stroke="#9ef3ec" stroke-width="1.51"/><path d="M679,-330L1166,84L1345,-415Z" fill="#95e1ef" stroke="#95e1ef" stroke-width="1.51"/><path d="M2381,-534L2174,-702L1886,-134Z" fill="#68a7dd" stroke="#68a7dd" stroke-width="1.51"/><path d="M215,-560L679,-330L1345,-415Z" fill="#8cdcf2" stroke="#8cdcf2" stroke-width="1.51"/><path d="M131,6L212,330L566,4Z" fill="#9dfdec" stroke="#9dfdec" stroke-width="1.51"/><path d="M775,1954L926,2554L1311,1915Z" fill="#77dced" stroke="#77dced" stroke-width="1.51"/><path d="M237,2385L926,2554L775,1954Z" fill="#72f0f4" stroke="#72f0f4" stroke-width="1.51"/><path d="M630,-223L131,6L566,4Z" fill="#9af6ee" stroke="#9af6ee" stroke-width="1.51"/><path d="M630,-223L679,-330L215,-560Z" fill="#8ee4f1" stroke="#8ee4f1" stroke-width="1.51"/><path d="M3303,2386L3164,1721L2880,2307Z" fill="#31dcf2" stroke="#31dcf2" stroke-width="1.51"/><path d="M3593,4L3221,-379L2926,64Z" fill="#69f1f7" stroke="#69f1f7" stroke-width="1.51"/><path d="M2381,-534L3262,-409L2174,-702Z" fill="#5cb1e7" stroke="#5cb1e7" stroke-width="1.51"/><path d="M3262,-409L3221,-379L3593,4Z" fill="#60e8f9" stroke="#60e8f9" stroke-width="1.51"/><path d="M2875,2363L3303,2386L2880,2307Z" fill="#27e4f6" stroke="#27e4f6" stroke-width="1.51"/><path d="M1741,2683L3303,2386L2875,2363Z" fill="#3ecdea" stroke="#3ecdea" stroke-width="1.51"/><path d="M357,1617L229,2176L775,1954Z" fill="#79d5e4" stroke="#79d5e4" stroke-width="1.51"/><path d="M-166,1699L229,2176L357,1617Z" fill="#74cae2" stroke="#74cae2" stroke-width="1.51"/><path d="M122,-404L131,6L630,-223Z" fill="#94f1f0" stroke="#94f1f0" stroke-width="1.51"/><path d="M212,330L-56,223L112,940Z" fill="#98eaee" stroke="#98eaee" stroke-width="1.51"/><path d="M3221,-379L3262,-409L2381,-534Z" fill="#5dcdf1" stroke="#5dcdf1" stroke-width="1.51"/><path d="M3593,4L2926,64L3337,370Z" fill="#71f6f5" stroke="#71f6f5" stroke-width="1.51"/><path d="M3643,1776L3593,4L3592,1059Z" fill="#6cdcf0" stroke="#6cdcf0" stroke-width="1.51"/><path d="M3592,1059L3593,4L3337,370Z" fill="#73edf5" stroke="#73edf5" stroke-width="1.51"/><path d="M131,6L-56,223L212,330Z" fill="#98f2ee" stroke="#98f2ee" stroke-width="1.51"/><path d="M-242,1448L-166,1699L330,1388Z" fill="#72b2d9" stroke="#72b2d9" stroke-width="1.51"/><path d="M3303,2386L3593,2216L3164,1721Z" fill="#2ce1f4" stroke="#2ce1f4" stroke-width="1.51"/><path d="M27,2326L237,2385L229,2176Z" fill="#6cf1f6" stroke="#6cf1f6" stroke-width="1.51"/><path d="M229,2176L237,2385L775,1954Z" fill="#75eaef" stroke="#75eaef" stroke-width="1.51"/><path d="M-242,1448L330,1388L112,940Z" fill="#82c5e0" stroke="#82c5e0" stroke-width="1.51"/><path d="M-598,1175L-242,1448L112,940Z" fill="#7bbce5" stroke="#7bbce5" stroke-width="1.51"/><path d="M215,-560L122,-404L630,-223Z" fill="#8de6f2" stroke="#8de6f2" stroke-width="1.51"/><path d="M131,6L-307,-91L-56,223Z" fill="#92eef0" stroke="#92eef0" stroke-width="1.51"/><path d="M215,-560L1345,-415L1530,-483Z" fill="#89d3f2" stroke="#89d3f2" stroke-width="1.51"/><path d="M-128,2126L27,2326L229,2176Z" fill="#69e4f3" stroke="#69e4f3" stroke-width="1.51"/><path d="M-166,1699L-128,2126L229,2176Z" fill="#6bd1eb" stroke="#6bd1eb" stroke-width="1.51"/><path d="M-297,1870L-128,2126L-166,1699Z" fill="#66c2e8" stroke="#66c2e8" stroke-width="1.51"/><path d="M2174,-702L215,-560L1530,-483Z" fill="#84c7f3" stroke="#84c7f3" stroke-width="1.51"/><path d="M-242,1448L-297,1870L-166,1699Z" fill="#67afde" stroke="#67afde" stroke-width="1.51"/><path d="M-612,824L-598,1175L112,940Z" fill="#81c3ec" stroke="#81c3ec" stroke-width="1.51"/><path d="M-242,1448L-598,1175L-297,1870Z" fill="#65a4dd" stroke="#65a4dd" stroke-width="1.51"/><path d="M122,-404L-307,-91L131,6Z" fill="#8ce5f2" stroke="#8ce5f2" stroke-width="1.51"/><path d="M-374,-326L-307,-91L122,-404Z" fill="#81d8f5" stroke="#81d8f5" stroke-width="1.51"/><path d="M-512,323L112,940L-56,223Z" fill="#91dff1" stroke="#91dff1" stroke-width="1.51"/><path d="M-307,-91L-512,323L-56,223Z" fill="#8ce2f2" stroke="#8ce2f2" stroke-width="1.51"/><path d="M-512,323L-612,824L112,940Z" fill="#8ad2f2" stroke="#8ad2f2" stroke-width="1.51"/><path d="M215,-560L-374,-326L122,-404Z" fill="#80d7f5" stroke="#80d7f5" stroke-width="1.51"/><path d="M-307,-91L-374,-326L-512,323Z" fill="#85ddf4" stroke="#85ddf4" stroke-width="1.51"/><path d="M-598,1175L-572,2198L-297,1870Z" fill="#5baae4" stroke="#5baae4" stroke-width="1.51"/><path d="M-297,1870L-572,2198L-128,2126Z" fill="#5dc9f0" stroke="#5dc9f0" stroke-width="1.51"/><path d="M-128,2126L-455,2519L27,2326Z" fill="#5ce4fa" stroke="#5ce4fa" stroke-width="1.51"/><path d="M27,2326L-455,2519L237,2385Z" fill="#62e9f8" stroke="#62e9f8" stroke-width="1.51"/><path d="M237,2385L-455,2519L926,2554Z" fill="#6df6f6" stroke="#6df6f6" stroke-width="1.51"/><path d="M-612,824L-572,2198L-598,1175Z" fill="#61a1e2" stroke="#61a1e2" stroke-width="1.51"/><path d="M-572,2198L-455,2519L-128,2126Z" fill="#54d8fa" stroke="#54d8fa" stroke-width="1.51"/><path d="M926,2554L-455,2519L1741,2683Z" fill="#72f0f5" stroke="#72f0f5" stroke-width="1.51"/></svg>